<svg xmlns="http://www.w3.org/2000/svg" aria-label="frame-fab — AI Manju Studio" role="img" viewBox="0 0 800 200"><title>frame-fab</title><desc>frame-fab 水平 logo: 图标 + 渐变文字 + 副标 (v3.0 升级版)</desc><defs><linearGradient id="brandPrimaryH" x1="0%" x2="100%" y1="0%" y2="100%"><stop offset="0%" stop-color="#6366F1"/><stop offset="50%" stop-color="#A855F7"/><stop offset="100%" stop-color="#EC4899"/></linearGradient><linearGradient id="brandAccentH" x1="0%" x2="100%" y1="100%" y2="0%"><stop offset="0%" stop-color="#FB923C"/><stop offset="100%" stop-color="#F43F5E"/></linearGradient><linearGradient id="textGradH" x1="0%" x2="100%" y1="0%" y2="0%"><stop offset="0%" stop-color="#6366F1"/><stop offset="50%" stop-color="#A855F7"/><stop offset="100%" stop-color="#EC4899"/></linearGradient><radialGradient id="pulseGlowH" cx="50%" cy="50%" r="50%"><stop offset="0%" stop-color="#FFF" stop-opacity=".95"/><stop offset="35%" stop-color="#A855F7" stop-opacity=".55"/><stop offset="100%" stop-color="#6366F1" stop-opacity="0"/></radialGradient><radialGradient id="bgGlowH" cx="50%" cy="48%" r="62%"><stop offset="0%" stop-color="#1A1B3E"/><stop offset="100%" stop-color="#0B0E2C"/></radialGradient></defs><g transform="translate(20 20) scale(0.625)"><rect width="224" height="224" x="16" y="16" fill="url(#bgGlowH)" rx="56"/><g opacity=".55"><line x1="40" x2="100" y1="40" y2="100" stroke="url(#brandPrimaryH)" stroke-width="1.2" opacity=".55"/><line x1="216" x2="156" y1="40" y2="100" stroke="url(#brandPrimaryH)" stroke-width="1.2" opacity=".55"/><line x1="40" x2="100" y1="216" y2="156" stroke="url(#brandPrimaryH)" stroke-width="1.2" opacity=".55"/><line x1="216" x2="156" y1="216" y2="156" stroke="url(#brandPrimaryH)" stroke-width="1.2" opacity=".55"/><circle cx="40" cy="40" r="2" fill="#A855F7" opacity=".7"/><circle cx="216" cy="40" r="2" fill="#A855F7" opacity=".7"/><circle cx="40" cy="216" r="2" fill="#A855F7" opacity=".7"/><circle cx="216" cy="216" r="2" fill="#A855F7" opacity=".7"/></g><rect width="40" height="88" x="14" y="84" fill="none" stroke="url(#brandPrimaryH)" stroke-width="3" opacity=".35" rx="8"/><rect width="46" height="120" x="50" y="68" fill="none" stroke="url(#brandPrimaryH)" stroke-width="4" rx="9"/><rect width="46" height="148" x="105" y="54" fill="none" stroke="url(#brandPrimaryH)" stroke-width="5" rx="9"/><rect width="46" height="120" x="160" y="68" fill="none" stroke="url(#brandPrimaryH)" stroke-width="4" rx="9"/><rect width="40" height="88" x="202" y="84" fill="none" stroke="url(#brandPrimaryH)" stroke-width="3" opacity=".35" rx="8"/><g fill="#EC4899" opacity=".78"><rect width="5" height="5" x="58" y="78" rx="1.5"/><rect width="5" height="5" x="78" y="78" rx="1.5"/><rect width="5" height="5" x="113" y="64" rx="1.5"/><rect width="5" height="5" x="133" y="64" rx="1.5"/><rect width="5" height="5" x="168" y="78" rx="1.5"/><rect width="5" height="5" x="188" y="78" rx="1.5"/></g><g fill="#EC4899" opacity=".78"><rect width="5" height="5" x="58" y="173" rx="1.5"/><rect width="5" height="5" x="78" y="173" rx="1.5"/><rect width="5" height="5" x="113" y="187" rx="1.5"/><rect width="5" height="5" x="133" y="187" rx="1.5"/><rect width="5" height="5" x="168" y="173" rx="1.5"/><rect width="5" height="5" x="188" y="173" rx="1.5"/></g><g transform="translate(128 128)"><circle r="46" fill="url(#pulseGlowH)" opacity=".55"/><circle r="18" fill="url(#brandAccentH)"/><circle r="12" fill="url(#brandPrimaryH)"/><circle r="5" fill="#FFF"/><circle r="2" fill="#A855F7"/><g stroke="url(#brandPrimaryH)" stroke-linecap="round" stroke-width="3" opacity=".85"><line x1="-58" x2="-26" y1="0" y2="0"/><line x1="26" x2="58" y1="0" y2="0"/><line x1="0" x2="0" y1="-58" y2="-26"/><line x1="0" x2="0" y1="26" y2="58"/></g><g fill="#EC4899" opacity=".85"><circle cx="-62" cy="0" r="1.8"/><circle cx="62" cy="0" r="1.8"/><circle cx="0" cy="-62" r="1.8"/><circle cx="0" cy="62" r="1.8"/></g></g></g><g><text x="0" y="96" font-family="-apple-system, BlinkMacSystemFont, 'Segoe UI', Helvetica, Arial, sans-serif" font-size="72" font-weight="800" letter-spacing="-2.5" transform="translate(208 0)"><tspan fill="url(#textGradH)">frame</tspan><tspan fill="#0B0E2C">·</tspan><tspan fill="#0B0E2C">fab</tspan></text><text x="0" y="138" fill="#0B0E2C" font-family="-apple-system, BlinkMacSystemFont, 'PingFang SC', 'Microsoft YaHei', 'Segoe UI', Helvetica, Arial, sans-serif" font-size="20" font-weight="600" letter-spacing="2" transform="translate(208 0)">AI 漫剧创作平台</text><text x="0" y="166" fill="#6B7280" font-family="-apple-system, BlinkMacSystemFont, 'Segoe UI', Helvetica, Arial, sans-serif" font-size="14" font-weight="500" letter-spacing="3" transform="translate(208 0)">NOVEL · TO · VIDEO · AI · PIPELINE</text></g></svg>