<svg xmlns="http://www.w3.org/2000/svg" aria-label="frame-fab social card" role="img" viewBox="0 0 1280 640"><title>frame-fab · AI 漫剧创作平台</title><desc>GitHub social card / Open Graph share card 1280×640 (v3.0 升级版)</desc><defs><linearGradient id="ogBg" x1="0%" x2="100%" y1="0%" y2="100%"><stop offset="0%" stop-color="#0B0E2C"/><stop offset="50%" stop-color="#14163B"/><stop offset="100%" stop-color="#1F1A45"/></linearGradient><radialGradient id="ogGlowA" cx="80%" cy="35%" r="55%"><stop offset="0%" stop-color="#EC4899" stop-opacity=".4"/><stop offset="60%" stop-color="#A855F7" stop-opacity=".15"/><stop offset="100%" stop-color="#6366F1" stop-opacity="0"/></radialGradient><radialGradient id="ogGlowB" cx="15%" cy="80%" r="50%"><stop offset="0%" stop-color="#6366F1" stop-opacity=".35"/><stop offset="100%" stop-color="#6366F1" stop-opacity="0"/></radialGradient><radialGradient id="ogGlowC" cx="50%" cy="50%" r="40%"><stop offset="0%" stop-color="#FB923C" stop-opacity=".2"/><stop offset="100%" stop-color="#F43F5E" stop-opacity="0"/></radialGradient><linearGradient id="ogPrimary" x1="0%" x2="100%" y1="0%" y2="100%"><stop offset="0%" stop-color="#6366F1"/><stop offset="50%" stop-color="#A855F7"/><stop offset="100%" stop-color="#EC4899"/></linearGradient><linearGradient id="ogAccent" x1="0%" x2="100%" y1="100%" y2="0%"><stop offset="0%" stop-color="#FB923C"/><stop offset="100%" stop-color="#F43F5E"/></linearGradient><linearGradient id="ogText" x1="0%" x2="100%" y1="0%" y2="0%"><stop offset="0%" stop-color="#FFF"/><stop offset="100%" stop-color="#E0E7FF"/></linearGradient><radialGradient id="ogPulseGlow" cx="50%" cy="50%" r="50%"><stop offset="0%" stop-color="#FFF" stop-opacity=".95"/><stop offset="35%" stop-color="#A855F7" stop-opacity=".55"/><stop offset="100%" stop-color="#6366F1" stop-opacity="0"/></radialGradient><radialGradient id="ogIconBg" cx="50%" cy="48%" r="62%"><stop offset="0%" stop-color="#1A1B3E"/><stop offset="100%" stop-color="#0B0E2C"/></radialGradient></defs><rect width="1280" height="640" fill="url(#ogBg)"/><rect width="1280" height="640" fill="url(#ogGlowA)"/><rect width="1280" height="640" fill="url(#ogGlowB)"/><rect width="1280" height="640" fill="url(#ogGlowC)"/><g opacity=".18"><rect width="1280" height="2" x="0" y="80" fill="url(#ogPrimary)"/><rect width="1280" height="2" x="0" y="560" fill="url(#ogPrimary)"/><g fill="#EC4899" opacity=".6"><rect width="10" height="10" x="40" y="68" rx="2"/><rect width="10" height="10" x="110" y="68" rx="2"/><rect width="10" height="10" x="180" y="68" rx="2"/><rect width="10" height="10" x="250" y="68" rx="2"/><rect width="10" height="10" x="320" y="68" rx="2"/><rect width="10" height="10" x="390" y="68" rx="2"/><rect width="10" height="10" x="460" y="68" rx="2"/><rect width="10" height="10" x="530" y="68" rx="2"/><rect width="10" height="10" x="600" y="68" rx="2"/><rect width="10" height="10" x="670" y="68" rx="2"/><rect width="10" height="10" x="740" y="68" rx="2"/><rect width="10" height="10" x="810" y="68" rx="2"/><rect width="10" height="10" x="880" y="68" rx="2"/><rect width="10" height="10" x="950" y="68" rx="2"/><rect width="10" height="10" x="1020" y="68" rx="2"/><rect width="10" height="10" x="1090" y="68" rx="2"/><rect width="10" height="10" x="1160" y="68" rx="2"/><rect width="10" height="10" x="1230" y="68" rx="2"/></g><g fill="#EC4899" opacity=".6"><rect width="10" height="10" x="40" y="562" rx="2"/><rect width="10" height="10" x="110" y="562" rx="2"/><rect width="10" height="10" x="180" y="562" rx="2"/><rect width="10" height="10" x="250" y="562" rx="2"/><rect width="10" height="10" x="320" y="562" rx="2"/><rect width="10" height="10" x="390" y="562" rx="2"/><rect width="10" height="10" x="460" y="562" rx="2"/><rect width="10" height="10" x="530" y="562" rx="2"/><rect width="10" height="10" x="600" y="562" rx="2"/><rect width="10" height="10" x="670" y="562" rx="2"/><rect width="10" height="10" x="740" y="562" rx="2"/><rect width="10" height="10" x="810" y="562" rx="2"/><rect width="10" height="10" x="880" y="562" rx="2"/><rect width="10" height="10" x="950" y="562" rx="2"/><rect width="10" height="10" x="1020" y="562" rx="2"/><rect width="10" height="10" x="1090" y="562" rx="2"/><rect width="10" height="10" x="1160" y="562" rx="2"/><rect width="10" height="10" x="1230" y="562" rx="2"/></g></g><g><text y="172" fill="#A5B4FC" font-family="-apple-system, BlinkMacSystemFont, 'Segoe UI', Helvetica, Arial, sans-serif" font-size="22" font-weight="600" letter-spacing="6" transform="translate(80 0)">v3.0 · OPEN SOURCE · MIT LICENSE</text><text y="296" font-family="-apple-system, BlinkMacSystemFont, 'Segoe UI', Helvetica, Arial, sans-serif" font-size="108" font-weight="800" letter-spacing="-4" transform="translate(80 0)"><tspan fill="url(#ogText)">frame</tspan><tspan fill="#A5B4FC">·</tspan><tspan fill="url(#ogText)">fab</tspan></text><text y="350" fill="#C5CAE9" font-family="-apple-system, BlinkMacSystemFont, 'PingFang SC', 'Microsoft YaHei', sans-serif" font-size="34" font-weight="600" letter-spacing="2" transform="translate(80 0)">AI 漫剧创作平台</text><text y="394" fill="#9CA3B8" font-family="-apple-system, BlinkMacSystemFont, 'Segoe UI', Helvetica, Arial, sans-serif" font-size="26" font-weight="500" letter-spacing="2" transform="translate(80 0)">Novel-to-Video AI Pipeline · v3.0</text><g font-family="-apple-system, BlinkMacSystemFont, 'Segoe UI', Helvetica, Arial, sans-serif" font-weight="600"><g transform="translate(80 0) translate(0 432)"><rect width="138" height="34" x="0" y="0" fill="#6366F1" fill-opacity=".18" stroke="#6366F1" stroke-opacity=".6" rx="17"/><text x="69" y="22" fill="#C7D2FE" font-size="14" letter-spacing="1" text-anchor="middle">TAURI 2 · RUST</text></g><g transform="translate(80 0) translate(0 432) translate(150 0)"><rect width="158" height="34" x="0" y="0" fill="#A855F7" fill-opacity=".18" stroke="#A855F7" stroke-opacity=".6" rx="17"/><text x="79" y="22" fill="#D8B4FE" font-size="14" letter-spacing="1" text-anchor="middle">7+ AI MODELS</text></g><g transform="translate(80 0) translate(0 432) translate(322 0)"><rect width="172" height="34" x="0" y="0" fill="#EC4899" fill-opacity=".18" stroke="#EC4899" stroke-opacity=".6" rx="17"/><text x="86" y="22" fill="#F9A8D4" font-size="14" letter-spacing="1" text-anchor="middle">QUALITY GATE</text></g><g transform="translate(80 0) translate(0 432) translate(508 0)"><rect width="172" height="34" x="0" y="0" fill="#F43F5E" fill-opacity=".18" stroke="#F43F5E" stroke-opacity=".6" rx="17"/><text x="86" y="22" fill="#FDA4AF" font-size="14" letter-spacing="1" text-anchor="middle">10-STEP PIPELINE</text></g></g></g><g transform="translate(820 80)"><rect width="380" height="380" x="0" y="0" fill="url(#ogIconBg)" stroke="#A855F7" stroke-opacity=".3" stroke-width="2" rx="80"/><rect width="380" height="380" x="0" y="0" fill="url(#ogPulseGlow)" opacity=".25" rx="80"/><g transform="translate(31 31) scale(1.3)"><g opacity=".5"><line x1="40" x2="100" y1="40" y2="100" stroke="url(#ogPrimary)" stroke-width="1.5"/><line x1="216" x2="156" y1="40" y2="100" stroke="url(#ogPrimary)" stroke-width="1.5"/><line x1="40" x2="100" y1="216" y2="156" stroke="url(#ogPrimary)" stroke-width="1.5"/><line x1="216" x2="156" y1="216" y2="156" stroke="url(#ogPrimary)" stroke-width="1.5"/><circle cx="40" cy="40" r="3" fill="#A855F7" opacity=".8"/><circle cx="216" cy="40" r="3" fill="#A855F7" opacity=".8"/><circle cx="40" cy="216" r="3" fill="#A855F7" opacity=".8"/><circle cx="216" cy="216" r="3" fill="#A855F7" opacity=".8"/></g><rect width="40" height="88" x="14" y="84" fill="none" stroke="url(#ogPrimary)" stroke-width="3.5" opacity=".4" rx="8"/><rect width="46" height="120" x="50" y="68" fill="none" stroke="url(#ogPrimary)" stroke-width="4.5" rx="9"/><rect width="46" height="148" x="105" y="54" fill="none" stroke="url(#ogPrimary)" stroke-width="5.5" rx="9"/><rect width="46" height="120" x="160" y="68" fill="none" stroke="url(#ogPrimary)" stroke-width="4.5" rx="9"/><rect width="40" height="88" x="202" y="84" fill="none" stroke="url(#ogPrimary)" stroke-width="3.5" opacity=".4" rx="8"/><g fill="#EC4899" opacity=".8"><rect width="5" height="5" x="58" y="78" rx="1.5"/><rect width="5" height="5" x="78" y="78" rx="1.5"/><rect width="5" height="5" x="113" y="64" rx="1.5"/><rect width="5" height="5" x="133" y="64" rx="1.5"/><rect width="5" height="5" x="168" y="78" rx="1.5"/><rect width="5" height="5" x="188" y="78" rx="1.5"/><rect width="5" height="5" x="58" y="173" rx="1.5"/><rect width="5" height="5" x="78" y="173" rx="1.5"/><rect width="5" height="5" x="113" y="187" rx="1.5"/><rect width="5" height="5" x="133" y="187" rx="1.5"/><rect width="5" height="5" x="168" y="173" rx="1.5"/><rect width="5" height="5" x="188" y="173" rx="1.5"/></g><g transform="translate(128 128)"><circle r="48" fill="url(#ogPulseGlow)" opacity=".6"/><circle r="20" fill="url(#ogAccent)"/><circle r="13" fill="url(#ogPrimary)"/><circle r="5" fill="#FFF"/><circle r="2" fill="#A855F7"/><g stroke="url(#ogPrimary)" stroke-linecap="round" stroke-width="3.5" opacity=".9"><line x1="-62" x2="-28" y1="0" y2="0"/><line x1="28" x2="62" y1="0" y2="0"/><line x1="0" x2="0" y1="-62" y2="-28"/><line x1="0" x2="0" y1="28" y2="62"/></g><g fill="#EC4899" opacity=".9"><circle cx="-68" cy="0" r="2.2"/><circle cx="68" cy="0" r="2.2"/><circle cx="0" cy="-68" r="2.2"/><circle cx="0" cy="68" r="2.2"/></g></g></g></g><g><text fill="#9CA3B8" font-family="-apple-system, BlinkMacSystemFont, 'Segoe UI', Helvetica, Arial, sans-serif" font-size="20" font-weight="500" transform="translate(80 612)">github.com/Agions/frame-fab</text></g><g><text fill="#9CA3B8" font-family="-apple-system, BlinkMacSystemFont, 'Segoe UI', Helvetica, Arial, sans-serif" font-size="20" font-weight="500" text-anchor="end" transform="translate(1200 612)">v3.0.0 · 2026</text></g></svg>