<svg xmlns="http://www.w3.org/2000/svg" aria-label="frame-fab light theme" role="img" viewBox="0 0 256 256"><title>frame-fab (light theme)</title><desc>浅色背景版 logo: 白色底 + 紫色实心胶片帧 (用于白底文档/打印)</desc><defs><linearGradient id="brandPrimaryL" x1="0%" x2="100%" y1="0%" y2="100%"><stop offset="0%" stop-color="#6366F1"/><stop offset="50%" stop-color="#A855F7"/><stop offset="100%" stop-color="#EC4899"/></linearGradient><linearGradient id="brandAccentL" x1="0%" x2="100%" y1="100%" y2="0%"><stop offset="0%" stop-color="#FB923C"/><stop offset="100%" stop-color="#F43F5E"/></linearGradient></defs><rect width="224" height="224" x="16" y="16" fill="#FFF" stroke="#F3F4F6" stroke-width="2" rx="56"/><rect width="40" height="88" x="14" y="84" fill="none" stroke="url(#brandPrimaryL)" stroke-width="3" opacity=".45" rx="8"/><rect width="46" height="120" x="50" y="68" fill="none" stroke="url(#brandPrimaryL)" stroke-width="4" rx="9"/><rect width="46" height="148" x="105" y="54" fill="none" stroke="url(#brandPrimaryL)" stroke-width="5" rx="9"/><rect width="46" height="120" x="160" y="68" fill="none" stroke="url(#brandPrimaryL)" stroke-width="4" rx="9"/><rect width="40" height="88" x="202" y="84" fill="none" stroke="url(#brandPrimaryL)" stroke-width="3" opacity=".45" rx="8"/><g fill="#EC4899" opacity=".75"><rect width="5" height="5" x="58" y="78" rx="1.5"/><rect width="5" height="5" x="78" y="78" rx="1.5"/><rect width="5" height="5" x="113" y="64" rx="1.5"/><rect width="5" height="5" x="133" y="64" rx="1.5"/><rect width="5" height="5" x="168" y="78" rx="1.5"/><rect width="5" height="5" x="188" y="78" rx="1.5"/><rect width="5" height="5" x="58" y="173" rx="1.5"/><rect width="5" height="5" x="78" y="173" rx="1.5"/><rect width="5" height="5" x="113" y="187" rx="1.5"/><rect width="5" height="5" x="133" y="187" rx="1.5"/><rect width="5" height="5" x="168" y="173" rx="1.5"/><rect width="5" height="5" x="188" y="173" rx="1.5"/></g><g transform="translate(128 128)"><circle r="18" fill="url(#brandAccentL)"/><circle r="12" fill="url(#brandPrimaryL)"/><circle r="5" fill="#FFF"/><circle r="2" fill="#A855F7"/></g></svg>