<svg xmlns="http://www.w3.org/2000/svg" aria-label="frame-fab monochrome" role="img" viewBox="0 0 256 256"><title>frame-fab (monochrome)</title><desc>单色 logo: 仅 #0B0E2C 一色, 用于单色印刷 / fax / 黑白文档</desc><rect width="224" height="224" x="16" y="16" fill="#0B0E2C" rx="56"/><g fill="none" stroke="#FFF" stroke-linejoin="round"><rect width="40" height="88" x="14" y="84" stroke-width="3" opacity=".4" rx="8"/><rect width="46" height="120" x="50" y="68" stroke-width="4" rx="9"/><rect width="46" height="148" x="105" y="54" stroke-width="5" rx="9"/><rect width="46" height="120" x="160" y="68" stroke-width="4" rx="9"/><rect width="40" height="88" x="202" y="84" stroke-width="3" opacity=".4" rx="8"/></g><g fill="#FFF" opacity=".75"><rect width="5" height="5" x="58" y="78" rx="1.5"/><rect width="5" height="5" x="78" y="78" rx="1.5"/><rect width="5" height="5" x="113" y="64" rx="1.5"/><rect width="5" height="5" x="133" y="64" rx="1.5"/><rect width="5" height="5" x="168" y="78" rx="1.5"/><rect width="5" height="5" x="188" y="78" rx="1.5"/><rect width="5" height="5" x="58" y="173" rx="1.5"/><rect width="5" height="5" x="78" y="173" rx="1.5"/><rect width="5" height="5" x="113" y="187" rx="1.5"/><rect width="5" height="5" x="133" y="187" rx="1.5"/><rect width="5" height="5" x="168" y="173" rx="1.5"/><rect width="5" height="5" x="188" y="173" rx="1.5"/></g><g transform="translate(128 128)"><circle r="18" fill="#FFF"/><circle r="12" fill="#0B0E2C"/><circle r="5" fill="#FFF"/><circle r="2" fill="#0B0E2C"/></g></svg>