<svg xmlns="http://www.w3.org/2000/svg" aria-label="frame-fab" role="img" viewBox="0 0 256 256"><title>frame-fab</title><desc>AI 漫剧创作平台 — 胶片三帧 + 多模型神经连结 + 中心光圈的视觉锤 (v3.0)</desc><defs><linearGradient id="brandPrimary" x1="0%" x2="100%" y1="0%" y2="100%"><stop offset="0%" stop-color="#6366F1"/><stop offset="50%" stop-color="#A855F7"/><stop offset="100%" stop-color="#EC4899"/></linearGradient><linearGradient id="brandAccent" x1="0%" x2="100%" y1="100%" y2="0%"><stop offset="0%" stop-color="#FB923C"/><stop offset="100%" stop-color="#F43F5E"/></linearGradient><radialGradient id="pulseGlow" cx="50%" cy="50%" r="50%"><stop offset="0%" stop-color="#FFF" stop-opacity=".95"/><stop offset="35%" stop-color="#A855F7" stop-opacity=".55"/><stop offset="100%" stop-color="#6366F1" stop-opacity="0"/></radialGradient><radialGradient id="bgGlow" cx="50%" cy="48%" r="62%"><stop offset="0%" stop-color="#1A1B3E"/><stop offset="100%" stop-color="#0B0E2C"/></radialGradient><radialGradient id="frameHighlight" cx="50%" cy="50%" r="50%"><stop offset="0%" stop-color="#FFF" stop-opacity=".18"/><stop offset="100%" stop-color="#FFF" stop-opacity="0"/></radialGradient><linearGradient id="neuroLine" x1="0%" x2="100%" y1="0%" y2="0%"><stop offset="0%" stop-color="#6366F1" stop-opacity="0"/><stop offset="50%" stop-color="#A855F7" stop-opacity=".55"/><stop offset="100%" stop-color="#EC4899" stop-opacity="0"/></linearGradient></defs><rect width="224" height="224" x="16" y="16" fill="url(#bgGlow)" rx="56"/><path fill="none" stroke="#FFF" stroke-opacity=".08" stroke-width="1" d="M 40 16 Q 128 8 216 16"/><g opacity=".55"><line x1="40" x2="100" y1="40" y2="100" stroke="url(#neuroLine)" stroke-width="1.2"/><line x1="216" x2="156" y1="40" y2="100" stroke="url(#neuroLine)" stroke-width="1.2"/><line x1="40" x2="100" y1="216" y2="156" stroke="url(#neuroLine)" stroke-width="1.2"/><line x1="216" x2="156" y1="216" y2="156" stroke="url(#neuroLine)" stroke-width="1.2"/><circle cx="40" cy="40" r="2" fill="#A855F7" opacity=".7"/><circle cx="216" cy="40" r="2" fill="#A855F7" opacity=".7"/><circle cx="40" cy="216" r="2" fill="#A855F7" opacity=".7"/><circle cx="216" cy="216" r="2" fill="#A855F7" opacity=".7"/></g><g><rect width="40" height="88" x="14" y="84" fill="none" stroke="url(#brandPrimary)" stroke-width="3" opacity=".35" rx="8"/><rect width="46" height="120" x="50" y="68" fill="none" stroke="url(#brandPrimary)" stroke-width="4" rx="9"/><rect width="46" height="120" x="50" y="68" fill="url(#frameHighlight)" rx="9"/><rect width="46" height="148" x="105" y="54" fill="none" stroke="url(#brandPrimary)" stroke-width="5" rx="9"/><rect width="46" height="148" x="105" y="54" fill="url(#frameHighlight)" rx="9"/><rect width="46" height="120" x="160" y="68" fill="none" stroke="url(#brandPrimary)" stroke-width="4" rx="9"/><rect width="46" height="120" x="160" y="68" fill="url(#frameHighlight)" rx="9"/><rect width="40" height="88" x="202" y="84" fill="none" stroke="url(#brandPrimary)" stroke-width="3" opacity=".35" rx="8"/><g fill="#EC4899" opacity=".78"><rect width="5" height="5" x="58" y="78" rx="1.5"/><rect width="5" height="5" x="78" y="78" rx="1.5"/><rect width="5" height="5" x="113" y="64" rx="1.5"/><rect width="5" height="5" x="133" y="64" rx="1.5"/><rect width="5" height="5" x="168" y="78" rx="1.5"/><rect width="5" height="5" x="188" y="78" rx="1.5"/></g><g fill="#EC4899" opacity=".78"><rect width="5" height="5" x="58" y="173" rx="1.5"/><rect width="5" height="5" x="78" y="173" rx="1.5"/><rect width="5" height="5" x="113" y="187" rx="1.5"/><rect width="5" height="5" x="133" y="187" rx="1.5"/><rect width="5" height="5" x="168" y="173" rx="1.5"/><rect width="5" height="5" x="188" y="173" rx="1.5"/></g></g><g transform="translate(128 128)"><circle r="46" fill="url(#pulseGlow)" opacity=".55"/><circle r="18" fill="url(#brandAccent)"/><circle r="18" fill="none" stroke="#FFF" stroke-opacity=".25" stroke-width="1"/><circle r="12" fill="url(#brandPrimary)"/><circle r="5" fill="#FFF"/><circle r="2" fill="#A855F7"/><g stroke="url(#brandPrimary)" stroke-linecap="round" stroke-width="3" opacity=".85"><line x1="-58" x2="-26" y1="0" y2="0"/><line x1="26" x2="58" y1="0" y2="0"/><line x1="0" x2="0" y1="-58" y2="-26"/><line x1="0" x2="0" y1="26" y2="58"/></g><g stroke="url(#brandPrimary)" stroke-linecap="round" stroke-width="1.8" opacity=".55"><line x1="-40" x2="-22" y1="-40" y2="-22"/><line x1="40" x2="22" y1="-40" y2="-22"/><line x1="-40" x2="-22" y1="40" y2="22"/><line x1="40" x2="22" y1="40" y2="22"/></g><g fill="#EC4899" opacity=".85"><circle cx="-62" cy="0" r="1.8"/><circle cx="62" cy="0" r="1.8"/><circle cx="0" cy="-62" r="1.8"/><circle cx="0" cy="62" r="1.8"/></g></g></svg>